Patient4_TMGait_0pt5_01_right_21_EMG.mot
version=1
nRows=23
nColumns=33
inDegrees=no
endheader
time	1LAddLong	2LGlutMax	3LGlutMed	4LIliopsoas	5LSemiMemb	6LBicFemLong	7LRecFem	8LVastMed	9LVastLat	10LGasMed	11LTibAnt	12lTibPost	13LPeroneusLong	14LSol	15LExtDigLong	16LFlexDigLong	17RAddLong	18RGlutMax	19RGlutMed	20RIliopsoas	21RSemiMemb	22RBicFemLong	23RRecFem	24RVastMed	25RVastLat	26RGasMed	27RTibAnt	28RTibPost	29RPeroneusLong	30RSol	31RExtDigLong	32RFlexDigLong
28.828	0.019531	0.016785	0.043488	-0.019684	0.001068	0.014954	-0.072174	0.00824	0.070343	-0.065002	-0.01358	0.018311	0.054779	-0.00351	0.008087	-0.112	0.001526	-0.18601	0.14236	-0.005951	0.017395	0.041962	0.037231	-0.025177	-0.002899	-0.00351	-0.95673	0.000763	-0.10605	-0.042419	-0.001526	0.00412
28.829	0.01709	-0.02182	0.059509	-0.006256	0.000916	0.033264	-0.040588	0.002594	0.036926	-0.17334	-0.016479	0.011749	-0.23377	0.080872	-0.003204	0.0737	0.010681	-0.14832	0.24002	-0.065918	0.048676	0.037994	0.054016	-0.029755	-0.01709	-0.003052	-0.14877	0.001373	0.24185	0.011902	0.000763	0.00473
28.83	0.007172	-0.058594	-0.029449	0.031433	-0.003052	0.02655	0.001221	-0.00351	0.054779	-0.12192	0.003204	0.020905	-0.62668	0.13855	-0.050964	0.044861	0.000153	-0.11337	0.23056	-0.036316	0.062866	0.041809	0.071259	-0.002747	-0.021515	-0.016785	0.32547	-0.001678	0.21774	0.035095	-0.00061	0.002747
28.831	0.011292	-0.034637	-0.048218	0.024719	-0.006256	0.075684	0.001678	0.002899	0.067139	-0.02182	0.018921	0.014648	0.084381	0.037537	-0.097351	0.020142	-0.006714	-0.033875	0.33844	-0.030212	0.029602	0.030212	0.060883	-0.032043	0.005493	-0.020142	0.01358	0.000153	0.081329	0.020752	-0.002441	0.008698
28.832	0.013733	-0.11276	-0.061646	0.011139	-0.009155	0.2327	0.027466	-0.000305	0.021515	-0.028992	0.01358	0.011749	0.07431	0.016327	-0.029144	-0.002594	-0.015259	-0.063019	0.14847	-0.026093	-0.045013	0.056458	0.063934	-0.027618	0.013428	-0.019836	-0.20035	-0.007172	0.081177	0.008087	-0.003052	-0.005188
28.833	0.011292	-0.20294	-0.11597	-0.005493	0.001526	0.34927	0.046234	0.003357	0.010223	0.026245	0.016785	0.017242	-0.028687	0.032654	-0.005493	-0.011444	-0.015564	-0.057678	0.16251	-0.050507	-0.030365	0.046234	0.090942	-0.054779	-0.000458	-0.01709	-0.22263	0.001221	0.33798	-0.01358	-0.001678	0.009613
28.834	0.006409	-0.16953	-0.1004	0.007935	-0.010376	0.36758	0.049438	0.002289	0.006104	0.049438	0.016174	0.015869	-0.29419	0.063019	-0.005035	-0.01236	0.004425	-0.083771	-0.076447	-0.019531	0.005798	0.038757	0.083771	-0.06073	-0.007477	-0.013275	-0.24246	-0.002594	0.13397	-0.067139	-0.000458	0.003815
28.835	0.005798	-0.15243	-0.057068	-0.006409	-0.006561	0.33905	0.064392	0.003815	-0.052948	0.056915	0.005798	0.015259	0.038605	0.15045	0.053101	-0.009003	0.005188	-0.10407	-0.25452	-0.005951	-0.011749	0.022736	0.069427	-0.03006	0	-0.018768	-0.12238	-0.00473	-0.22293	-0.027008	-0.004272	0.00885
28.836	0.006866	-0.15366	-0.04425	0.005646	-0.005188	0.30182	0.068665	0.005798	-0.030518	0.032959	0.020447	0.015259	0.51498	0.14267	0.090027	-0.005646	0.005646	-0.16357	-0.12985	-0.027161	-0.077209	0.026245	0.05127	-0.10101	-0.005951	-0.016785	-0.11017	-0.00351	-0.49759	0.035095	-0.000916	0.001373
28.837	0.014343	-0.15045	-0.093842	0.001678	0.004425	0.091248	0.069275	0.006256	-0.00885	0.023041	0.008087	0.001221	0.26199	0.05188	0.027161	-0.009003	0.004272	-0.16876	0.089722	-0.003967	-0.16388	0.06546	0.042572	-0.028839	0.00061	-0.016937	0.076599	-0.000153	-0.51224	-0.015869	-0.002441	0.005798
28.838	0.009155	-0.09552	-0.047913	-0.001068	0.006256	-0.56305	0.067139	-0.003662	0.029449	0.004578	-0.006256	0.017242	0.011902	-0.027161	-0.010376	0.003662	0.006409	-0.087891	0.21286	-0.031281	-0.16739	0.079498	0.06012	-0.041504	-0.000763	-0.014801	0.27176	0.001373	-0.012512	-0.051727	0.001526	-0.008392
28.839	0.016937	0.00351	0.060577	0.006561	0.009308	-0.5191	0.073395	0.011902	0.02594	0.022278	-0.023346	0.004883	0.056305	-0.059662	-0.10666	-0.01358	-0.013123	0.009155	-0.097351	-0.003662	0.016479	0.075073	0.023346	-0.026855	0	-0.013428	0.1619	0	-0.45593	-0.076904	-0.003052	-0.012665
28.84	0.007935	-0.071106	0.035095	0.010376	0.000916	-0.46845	0.06424	0.000153	0.028229	0.055237	-0.023956	0.003662	-0.11566	-0.066986	-0.092468	-0.014801	-0.022583	-0.032654	-0.19424	0.007019	0.14664	0.058441	0.013275	-0.013123	0.008087	-0.016937	0.050659	-0.001678	0.19669	-0.079498	0	-0.011597
28.841	0.010681	-0.13046	-0.04303	0.014191	-0.000458	-0.22659	0.096283	0.012817	0.009155	0.048065	-0.013733	0.005951	-0.25757	0.067596	0.053406	-0.009003	-0.014954	-0.061035	0.070953	0.000916	0.10635	0.031586	0.059814	-0.060425	0.00061	-0.016479	0.1712	-0.000153	0.59799	-0.083771	0.000916	-0.003357
28.842	0.008392	-0.17548	-0.021515	0.019684	0.004272	-0.054626	0.14664	0.000916	0.002441	0.039063	-0.002747	0.001984	-0.23636	0.083008	0.072632	-0.013428	0.011749	-0.12619	0.12451	-0.004272	0.084381	-0.002441	0.07019	-0.079193	0.011139	-0.014801	0.22766	0.004883	1.1678	-0.04715	0.004425	-0.001831
28.843	0.00473	-0.20309	-0.072937	0.019989	-0.001526	-0.036163	0.17716	0.003662	-0.00885	0.028687	-0.007477	0.002594	0.22598	0.014191	0.04303	-0.009003	0.018463	-0.074768	-0.032806	0.024414	0.10376	-0.0177	0.046234	-0.058594	-0.013123	-0.012054	0.14999	0.000153	0.7576	-0.020599	-0.00061	-0.008698
28.844	0.010986	-0.20142	-0.098114	0.000916	-0.010986	-0.012207	0.1712	0.011139	-0.029449	0.010223	0.008392	0.003967	0.32715	-0.037537	0.047607	-0.006256	0.033112	-0.11795	-0.036926	0.04425	0.071411	0.019073	0.06012	-0.056915	0.021362	-0.010834	0.11612	-0.001068	-0.35019	0.016785	0.000916	0.000458
28.845	0.018616	-0.23148	-0.080566	0.003815	0.002747	-0.008698	0.11139	0.016632	-0.003662	0.027618	0.024414	0.000153	0.11261	-0.02594	0.068207	0.003052	0	-0.1236	0.066528	0.005646	-0.11398	0.087433	0.070343	-0.05661	0.007782	-0.015106	0.037994	-0.003967	-0.95688	0.10513	0	-0.000916
28.846	0.010681	-0.20905	-0.09079	-0.001373	0.006714	0.064392	0.012512	0.010223	0.045929	0.045929	0.038147	-0.007019	-0.056458	0.007172	0.040894	0.01297	-0.019989	-0.10162	0.077515	-0.000153	-0.13962	0.095825	0.053101	-0.052338	0.021057	-0.020447	0.06958	0.011292	-0.65842	0.12024	0.000153	-0.003357
28.847	0.021667	-0.17609	-0.1294	0.011139	0.000916	-0.050354	-0.11139	0.003967	0.045013	0.052643	0.049286	-0.003204	-0.068359	-0.000458	-0.032959	0.007172	-0.022583	-0.080414	0.12909	-0.01297	-0.074615	0.090942	0.065155	-0.065918	0.016174	-0.020599	0.1239	-0.000916	-0.37369	0.096283	-0.001678	0.002441
28.848	0.01358	-0.18051	-0.028076	0.011902	0.019836	-0.24399	-0.14084	0.017853	0.036163	0.062561	0.053253	0.000916	-0.27237	-0.006104	-0.076447	0.009766	-0.013275	-0.088806	0.099335	0.012054	0.032196	0.037994	0.064392	-0.057373	0.019989	-0.016174	0.14175	0.002899	-0.34759	0.079346	-0.006104	-0.000763
28.849	0.014191	-0.16052	-0.066071	0.03067	0.021362	-0.22659	-0.042267	-0.000305	0.10437	0.046539	0.048218	0.00473	-0.34042	0.021057	-0.04364	0.001221	-0.014801	-0.089722	0.075073	0.014038	0.045471	0.002747	0.041199	-0.014496	0.034943	-0.011292	0.11276	0.000916	0.1358	-0.007324	-0.001678	-0.006866
28.85	0.014496	-0.11673	-0.16693	0.004578	0.014801	-0.092468	-0.019989	0.002594	0.1506	0.032806	-0.023346	-0.006409	-0.18768	0.057526	0.13657	0.002747	-0.016327	-0.061646	0.072937	0.002289	0.004883	-0.009918	0.070496	-0.051117	-0.004425	-0.009003	0.080414	0.00473	0.43869	-0.070801	-0.000458	-0.005798
